<?xml version="1.0" encoding="UTF-8"?><svg xmlns="http://www.w3.org/2000/svg" xmlns:xlink="http://www.w3.org/1999/xlink" fill-opacity="1" color-rendering="auto" color-interpolation="auto" text-rendering="auto" stroke="black" stroke-linecap="square" width="715" stroke-miterlimit="10" shape-rendering="auto" stroke-opacity="1" fill="black" stroke-dasharray="none" font-weight="normal" stroke-width="1" height="300" font-family="'Dialog'" font-style="normal" stroke-linejoin="miter" font-size="12px" stroke-dashoffset="0" image-rendering="auto">
  <!--Generated by ySVG 2.5-->
  <defs id="genericDefs"/>
  <g>
    <defs id="defs1">
      <clipPath clipPathUnits="userSpaceOnUse" id="clipPath1">
        <path d="M0 0 L699 0 L699 300 L0 300 L0 0 Z"/>
      </clipPath>
      <clipPath clipPathUnits="userSpaceOnUse" id="clipPath2">
        <path d="M352 165 L1051 165 L1051 465 L352 465 L352 165 Z"/>
      </clipPath>
    </defs>
    <g font-size="15px" stroke-linecap="butt" transform="matrix(1,0,0,1,-352,-165)" text-rendering="geometricPrecision" font-family="sans-serif" shape-rendering="geometricPrecision" stroke-miterlimit="1.45">
      <text x="486.3837" xml:space="preserve" y="197.7041" clip-path="url(#clipPath2)" stroke="none">Executable</text>
    </g>
    <g text-rendering="geometricPrecision" stroke-miterlimit="1.45" stroke-dasharray="6,2" shape-rendering="geometricPrecision" transform="matrix(1,0,0,1,-352,-165)" stroke-linecap="butt">
      <rect x="367.6" y="180.6235" clip-path="url(#clipPath2)" fill="none" width="195" rx="4" ry="4" height="269.3765"/>
    </g>
    <g fill="rgb(255,204,0)" text-rendering="geometricPrecision" shape-rendering="geometricPrecision" transform="matrix(1,0,0,1,-352,-165)" stroke="rgb(255,204,0)">
      <rect x="372.6" width="185" height="116.6" y="208" clip-path="url(#clipPath2)" stroke="none"/>
    </g>
    <g text-rendering="geometricPrecision" stroke-miterlimit="1.45" shape-rendering="geometricPrecision" font-family="sans-serif" transform="matrix(1,0,0,1,-352,-165)" stroke-linecap="butt">
      <text x="414.0795" xml:space="preserve" y="263.6633" clip-path="url(#clipPath2)" stroke="none">Statically Compiled</text>
      <text x="419.7367" xml:space="preserve" y="278.3644" clip-path="url(#clipPath2)" stroke="none">Application Code</text>
      <rect fill="none" x="372.6" width="185" height="116.6" y="208" clip-path="url(#clipPath2)"/>
    </g>
    <g fill="rgb(255,204,0)" text-rendering="geometricPrecision" shape-rendering="geometricPrecision" transform="matrix(1,0,0,1,-352,-165)" stroke="rgb(255,204,0)">
      <rect x="372.6" width="185" height="120.4" y="324.6" clip-path="url(#clipPath2)" stroke="none"/>
    </g>
    <g text-rendering="geometricPrecision" stroke-miterlimit="1.45" shape-rendering="geometricPrecision" font-family="sans-serif" transform="matrix(1,0,0,1,-352,-165)" stroke-linecap="butt">
      <text x="414.0795" xml:space="preserve" y="382.1633" clip-path="url(#clipPath2)" stroke="none">Statically Compiled</text>
      <text x="415.0844" xml:space="preserve" y="396.8644" clip-path="url(#clipPath2)" stroke="none">JIT Compiler Code</text>
      <rect fill="none" x="372.6" width="185" height="120.4" y="324.6" clip-path="url(#clipPath2)"/>
      <text x="882.8301" xml:space="preserve" font-size="15px" y="197.7041" clip-path="url(#clipPath2)" stroke="none">Memory</text>
      <rect x="744" y="180.6235" clip-path="url(#clipPath2)" fill="none" width="195" stroke-dasharray="6,2" rx="4" ry="4" height="269.3765"/>
    </g>
    <g fill="rgb(204,255,204)" text-rendering="geometricPrecision" shape-rendering="geometricPrecision" transform="matrix(1,0,0,1,-352,-165)" stroke="rgb(204,255,204)">
      <rect x="749" width="185" height="6" y="415" clip-path="url(#clipPath2)" stroke="none"/>
    </g>
    <g text-rendering="geometricPrecision" stroke-miterlimit="1.45" shape-rendering="geometricPrecision" transform="matrix(1,0,0,1,-352,-165)" stroke-linecap="butt">
      <rect fill="none" x="749" width="185" height="6" y="415" clip-path="url(#clipPath2)"/>
    </g>
    <g fill="rgb(204,255,204)" text-rendering="geometricPrecision" shape-rendering="geometricPrecision" transform="matrix(1,0,0,1,-352,-165)" stroke="rgb(204,255,204)">
      <rect x="749" width="185" height="16" y="317" clip-path="url(#clipPath2)" stroke="none"/>
    </g>
    <g text-rendering="geometricPrecision" stroke-miterlimit="1.45" shape-rendering="geometricPrecision" transform="matrix(1,0,0,1,-352,-165)" stroke-linecap="butt">
      <rect fill="none" x="749" width="185" height="16" y="317" clip-path="url(#clipPath2)"/>
      <text x="807.8262" xml:space="preserve" y="377.7139" clip-path="url(#clipPath2)" font-family="sans-serif" stroke="none">free memory</text>
    </g>
    <g fill="rgb(204,255,204)" text-rendering="geometricPrecision" shape-rendering="geometricPrecision" transform="matrix(1,0,0,1,-352,-165)" stroke="rgb(204,255,204)">
      <rect x="749" width="185" height="6" y="421" clip-path="url(#clipPath2)" stroke="none"/>
    </g>
    <g text-rendering="geometricPrecision" stroke-miterlimit="1.45" shape-rendering="geometricPrecision" transform="matrix(1,0,0,1,-352,-165)" stroke-linecap="butt">
      <rect fill="none" x="749" width="185" height="6" y="421" clip-path="url(#clipPath2)"/>
    </g>
    <g fill="rgb(204,255,204)" text-rendering="geometricPrecision" shape-rendering="geometricPrecision" transform="matrix(1,0,0,1,-352,-165)" stroke="rgb(204,255,204)">
      <rect x="749" width="185" height="6" y="427" clip-path="url(#clipPath2)" stroke="none"/>
    </g>
    <g text-rendering="geometricPrecision" stroke-miterlimit="1.45" shape-rendering="geometricPrecision" transform="matrix(1,0,0,1,-352,-165)" stroke-linecap="butt">
      <rect fill="none" x="749" width="185" height="6" y="427" clip-path="url(#clipPath2)"/>
    </g>
    <g fill="rgb(204,255,204)" text-rendering="geometricPrecision" shape-rendering="geometricPrecision" transform="matrix(1,0,0,1,-352,-165)" stroke="rgb(204,255,204)">
      <rect x="749" width="185" height="6" y="433" clip-path="url(#clipPath2)" stroke="none"/>
    </g>
    <g text-rendering="geometricPrecision" stroke-miterlimit="1.45" shape-rendering="geometricPrecision" transform="matrix(1,0,0,1,-352,-165)" stroke-linecap="butt">
      <rect fill="none" x="749" width="185" height="6" y="433" clip-path="url(#clipPath2)"/>
    </g>
    <g fill="rgb(204,255,204)" text-rendering="geometricPrecision" shape-rendering="geometricPrecision" transform="matrix(1,0,0,1,-352,-165)" stroke="rgb(204,255,204)">
      <rect x="749" width="185" height="6" y="439" clip-path="url(#clipPath2)" stroke="none"/>
    </g>
    <g text-rendering="geometricPrecision" stroke-miterlimit="1.45" shape-rendering="geometricPrecision" transform="matrix(1,0,0,1,-352,-165)" stroke-linecap="butt">
      <rect fill="none" x="749" width="185" height="6" y="439" clip-path="url(#clipPath2)"/>
    </g>
    <g fill="rgb(204,255,204)" text-rendering="geometricPrecision" shape-rendering="geometricPrecision" transform="matrix(1,0,0,1,-352,-165)" stroke="rgb(204,255,204)">
      <rect x="749" width="185" height="16" y="208" clip-path="url(#clipPath2)" stroke="none"/>
    </g>
    <g text-rendering="geometricPrecision" stroke-miterlimit="1.45" shape-rendering="geometricPrecision" transform="matrix(1,0,0,1,-352,-165)" stroke-linecap="butt">
      <rect fill="none" x="749" width="185" height="16" y="208" clip-path="url(#clipPath2)"/>
    </g>
    <g fill="rgb(204,255,204)" text-rendering="geometricPrecision" shape-rendering="geometricPrecision" transform="matrix(1,0,0,1,-352,-165)" stroke="rgb(204,255,204)">
      <rect x="749" width="185" height="46" y="231" clip-path="url(#clipPath2)" stroke="none"/>
    </g>
    <g text-rendering="geometricPrecision" stroke-miterlimit="1.45" shape-rendering="geometricPrecision" font-family="sans-serif" transform="matrix(1,0,0,1,-352,-165)" stroke-linecap="butt">
      <text x="794.1592" xml:space="preserve" y="258.7139" clip-path="url(#clipPath2)" stroke="none">Compiler Memory</text>
      <rect fill="none" x="749" width="185" height="46" y="231" clip-path="url(#clipPath2)"/>
    </g>
    <g fill="rgb(255,204,0)" text-rendering="geometricPrecision" shape-rendering="geometricPrecision" transform="matrix(1,0,0,1,-352,-165)" stroke="rgb(255,204,0)">
      <rect x="749" width="185" height="34.7" y="279.65" clip-path="url(#clipPath2)" stroke="none"/>
    </g>
    <g text-rendering="geometricPrecision" stroke-miterlimit="1.45" shape-rendering="geometricPrecision" font-family="sans-serif" transform="matrix(1,0,0,1,-352,-165)" stroke-linecap="butt">
      <text x="782.1475" xml:space="preserve" y="294.3633" clip-path="url(#clipPath2)" stroke="none">Dynamically Compiled</text>
      <text x="796.1367" xml:space="preserve" y="309.0645" clip-path="url(#clipPath2)" stroke="none">Application Code</text>
      <rect fill="none" x="749" width="185" height="34.7" y="279.65" clip-path="url(#clipPath2)"/>
      <text x="615.6096" xml:space="preserve" y="292.0133" clip-path="url(#clipPath2)" stroke="none">Generate new</text>
      <text x="609.6008" xml:space="preserve" y="306.7144" clip-path="url(#clipPath2)" stroke="none">executable code</text>
      <text fill="gray" x="961.0012" xml:space="preserve" y="266.6883" clip-path="url(#clipPath2)" stroke="none">Windows: </text>
      <text fill="gray" x="961.0012" xml:space="preserve" y="281.3895" clip-path="url(#clipPath2)" stroke="none">VirtualProtect</text>
      <text fill="gray" x="967.1693" xml:space="preserve" y="312.675" clip-path="url(#clipPath2)" stroke="none">Unix: </text>
      <text fill="gray" x="967.1693" xml:space="preserve" y="327.3762" clip-path="url(#clipPath2)" stroke="none">mprotect</text>
      <path fill="none" d="M841.5 415 L841.5 392.5" clip-path="url(#clipPath2)"/>
      <path d="M841.5 384.5 L836.5 396.5 L841.5 393.5 L846.5 396.5 Z" clip-path="url(#clipPath2)" stroke="none"/>
      <path fill="none" d="M841.5 333 L841.5 353.5" clip-path="url(#clipPath2)"/>
      <path d="M841.5 361.5 L846.5 349.5 L841.5 352.5 L836.5 349.5 Z" clip-path="url(#clipPath2)" stroke="none"/>
      <path fill="none" d="M557.6 356.1931 L741.3104 299.3781" clip-path="url(#clipPath2)"/>
      <path d="M748.9532 297.0145 L736.0117 295.7832 L740.355 299.6736 L738.9662 305.3367 Z" clip-path="url(#clipPath2)" stroke="none"/>
      <path fill="none" d="M958.0623 269.352 L934 297" clip-path="url(#clipPath2)" stroke="gray"/>
      <path fill="none" d="M934 297 L964 306.7213" clip-path="url(#clipPath2)" stroke="gray"/>
    </g>
  </g>
</svg>
