<?xml version="1.0" encoding="UTF-8"?><svg xmlns="http://www.w3.org/2000/svg" xmlns:xlink="http://www.w3.org/1999/xlink" fill-opacity="1" color-rendering="auto" color-interpolation="auto" text-rendering="auto" stroke="black" stroke-linecap="square" width="656" stroke-miterlimit="10" shape-rendering="auto" stroke-opacity="1" fill="black" stroke-dasharray="none" font-weight="normal" stroke-width="1" height="182" font-family="'Dialog'" font-style="normal" stroke-linejoin="miter" font-size="12px" stroke-dashoffset="0" image-rendering="auto">
  <!--Generated by ySVG 2.5-->
  <defs id="genericDefs"/>
  <g>
    <defs id="defs1">
      <clipPath clipPathUnits="userSpaceOnUse" id="clipPath1">
        <path d="M0 0 L656 0 L656 182 L0 182 L0 0 Z"/>
      </clipPath>
      <clipPath clipPathUnits="userSpaceOnUse" id="clipPath2">
        <path d="M57 77 L713 77 L713 259 L57 259 L57 77 Z"/>
      </clipPath>
    </defs>
    <g fill="rgb(255,204,0)" text-rendering="geometricPrecision" shape-rendering="geometricPrecision" transform="matrix(1,0,0,1,-57,-77)" stroke="rgb(255,204,0)">
      <rect x="159.8199" width="92" height="43" y="106.3096" clip-path="url(#clipPath2)" stroke="none"/>
    </g>
    <g text-rendering="geometricPrecision" stroke-miterlimit="1.45" shape-rendering="geometricPrecision" font-family="sans-serif" transform="matrix(1,0,0,1,-57,-77)" stroke-linecap="butt">
      <rect fill="none" x="159.8199" width="92" height="43" y="106.3096" clip-path="url(#clipPath2)"/>
    </g>
    <g fill="rgb(255,204,0)" text-rendering="geometricPrecision" shape-rendering="geometricPrecision" transform="matrix(1,0,0,1,-57,-77)" stroke="rgb(255,204,0)">
      <rect x="334.8199" width="92" height="43" y="106.3096" clip-path="url(#clipPath2)" stroke="none"/>
    </g>
    <g text-rendering="geometricPrecision" stroke-miterlimit="1.45" shape-rendering="geometricPrecision" transform="matrix(1,0,0,1,-57,-77)" stroke-linecap="butt">
      <rect fill="none" x="334.8199" width="92" height="43" y="106.3096" clip-path="url(#clipPath2)"/>
      <text x="635.0566" xml:space="preserve" y="125.1729" clip-path="url(#clipPath2)" font-family="sans-serif" stroke="none">Executable</text>
      <text x="655.0752" xml:space="preserve" y="139.8741" clip-path="url(#clipPath2)" font-family="sans-serif" stroke="none">File</text>
    </g>
    <g fill="rgb(255,204,0)" text-rendering="geometricPrecision" shape-rendering="geometricPrecision" transform="matrix(1,0,0,1,-57,-77)" stroke="rgb(255,204,0)">
      <rect x="509.8199" width="92" height="43" y="106.3096" clip-path="url(#clipPath2)" stroke="none"/>
    </g>
    <g text-rendering="geometricPrecision" stroke-miterlimit="1.45" shape-rendering="geometricPrecision" transform="matrix(1,0,0,1,-57,-77)" stroke-linecap="butt">
      <rect fill="none" x="509.8199" width="92" height="43" y="106.3096" clip-path="url(#clipPath2)"/>
      <text x="82.2448" xml:space="preserve" y="125.1729" clip-path="url(#clipPath2)" font-family="sans-serif" stroke="none">Source</text>
      <text x="75.5769" xml:space="preserve" y="139.8741" clip-path="url(#clipPath2)" font-family="sans-serif" stroke="none">Code File</text>
      <path fill="none" d="M251.8199 127.8096 L326.8199 127.8096" clip-path="url(#clipPath2)"/>
      <path d="M334.8199 127.8096 L322.8199 122.8096 L325.8199 127.8096 L322.8199 132.8096 Z" clip-path="url(#clipPath2)" stroke="none"/>
      <path fill="none" d="M426.8199 127.8096 L501.8199 127.8096" clip-path="url(#clipPath2)"/>
      <path d="M509.8199 127.8096 L497.8199 122.8096 L500.8199 127.8096 L497.8199 132.8096 Z" clip-path="url(#clipPath2)" stroke="none"/>
      <path fill="none" d="M601.8199 127.8096 L623.8199 127.8096" clip-path="url(#clipPath2)"/>
      <path d="M631.8199 127.8096 L619.8199 122.8096 L622.8199 127.8096 L619.8199 132.8096 Z" clip-path="url(#clipPath2)" stroke="none"/>
      <path fill="none" d="M129.8199 127.8096 L151.8199 127.8096" clip-path="url(#clipPath2)"/>
      <path d="M159.8199 127.8096 L147.8199 122.8096 L150.8199 127.8096 L147.8199 132.8096 Z" clip-path="url(#clipPath2)" stroke="none"/>
    </g>
  </g>
</svg>
