<?xml version="1.0" encoding="UTF-8"?><svg xmlns="http://www.w3.org/2000/svg" xmlns:xlink="http://www.w3.org/1999/xlink" fill-opacity="1" color-rendering="auto" color-interpolation="auto" text-rendering="auto" stroke="black" stroke-linecap="square" width="656" stroke-miterlimit="10" shape-rendering="auto" stroke-opacity="1" fill="black" stroke-dasharray="none" font-weight="normal" stroke-width="1" height="182" font-family="'Dialog'" font-style="normal" stroke-linejoin="miter" font-size="12px" stroke-dashoffset="0" image-rendering="auto">
  <!--Generated by ySVG 2.5-->
  <defs id="genericDefs"/>
  <g>
    <defs id="defs1">
      <clipPath clipPathUnits="userSpaceOnUse" id="clipPath1">
        <path d="M0 0 L656 0 L656 182 L0 182 L0 0 Z"/>
      </clipPath>
      <clipPath clipPathUnits="userSpaceOnUse" id="clipPath2">
        <path d="M57 77 L713 77 L713 259 L57 259 L57 77 Z"/>
      </clipPath>
    </defs>
    <g fill="rgb(255,204,0)" text-rendering="geometricPrecision" shape-rendering="geometricPrecision" transform="matrix(1,0,0,1,-57,-77)" stroke="rgb(255,204,0)">
      <rect x="159.8199" width="92" height="43" y="106.3096" clip-path="url(#clipPath2)" stroke="none"/>
    </g>
    <g text-rendering="geometricPrecision" stroke-miterlimit="1.45" shape-rendering="geometricPrecision" font-family="sans-serif" transform="matrix(1,0,0,1,-57,-77)" stroke-linecap="butt">
      <text x="181.814" xml:space="preserve" y="132.5235" clip-path="url(#clipPath2)" stroke="none">Compiler</text>
      <rect fill="none" x="159.8199" width="92" height="43" y="106.3096" clip-path="url(#clipPath2)"/>
    </g>
    <g fill="rgb(255,204,0)" text-rendering="geometricPrecision" shape-rendering="geometricPrecision" transform="matrix(1,0,0,1,-57,-77)" stroke="rgb(255,204,0)">
      <rect x="334.8199" width="92" height="43" y="106.3096" clip-path="url(#clipPath2)" stroke="none"/>
    </g>
    <g text-rendering="geometricPrecision" stroke-miterlimit="1.45" shape-rendering="geometricPrecision" font-family="sans-serif" transform="matrix(1,0,0,1,-57,-77)" stroke-linecap="butt">
      <text x="352.4781" xml:space="preserve" y="132.5235" clip-path="url(#clipPath2)" stroke="none">Assembler</text>
      <rect fill="none" x="334.8199" width="92" height="43" y="106.3096" clip-path="url(#clipPath2)"/>
      <text x="635.0566" xml:space="preserve" y="125.1729" clip-path="url(#clipPath2)" stroke="none">Executable</text>
      <text x="655.0752" xml:space="preserve" y="139.8741" clip-path="url(#clipPath2)" stroke="none">File</text>
    </g>
    <g fill="rgb(255,204,0)" text-rendering="geometricPrecision" shape-rendering="geometricPrecision" transform="matrix(1,0,0,1,-57,-77)" stroke="rgb(255,204,0)">
      <rect x="509.8199" width="92" height="43" y="106.3096" clip-path="url(#clipPath2)" stroke="none"/>
    </g>
    <g text-rendering="geometricPrecision" stroke-miterlimit="1.45" shape-rendering="geometricPrecision" font-family="sans-serif" transform="matrix(1,0,0,1,-57,-77)" stroke-linecap="butt">
      <text x="539.4781" xml:space="preserve" y="132.5235" clip-path="url(#clipPath2)" stroke="none">Linker</text>
      <rect fill="none" x="509.8199" width="92" height="43" y="106.3096" clip-path="url(#clipPath2)"/>
      <text x="434.3062" xml:space="preserve" y="179.8654" clip-path="url(#clipPath2)" stroke="none">Other Object</text>
      <text x="439.6412" xml:space="preserve" y="194.5666" clip-path="url(#clipPath2)" stroke="none">Code Files</text>
      <text x="82.2448" xml:space="preserve" y="125.1729" clip-path="url(#clipPath2)" stroke="none">Source</text>
      <text x="75.5769" xml:space="preserve" y="139.8741" clip-path="url(#clipPath2)" stroke="none">Code File</text>
      <text x="538.632" xml:space="preserve" y="218.8654" clip-path="url(#clipPath2)" stroke="none">external symbol resolution, </text>
      <text x="549.6329" xml:space="preserve" y="233.5666" clip-path="url(#clipPath2)" stroke="none">address relocation, etc.</text>
      <rect x="535.1662" y="200.0022" clip-path="url(#clipPath2)" fill="none" width="153" rx="4" ry="4" height="43" stroke="gray"/>
      <text x="288.1909" xml:space="preserve" y="218.8654" clip-path="url(#clipPath2)" stroke="none">assembly code</text>
      <text x="284.1831" xml:space="preserve" y="233.5666" clip-path="url(#clipPath2)" stroke="none">to machine code</text>
      <rect x="270.7104" y="200.0022" clip-path="url(#clipPath2)" fill="none" width="115" rx="4" ry="4" height="43" stroke="gray"/>
      <text x="129.0947" xml:space="preserve" y="218.8654" clip-path="url(#clipPath2)" stroke="none">process single</text>
      <text x="128.4238" xml:space="preserve" y="233.5666" clip-path="url(#clipPath2)" stroke="none">translation unit</text>
      <rect x="109.9472" y="200.0022" clip-path="url(#clipPath2)" fill="none" width="115" rx="4" ry="4" height="43" stroke="gray"/>
      <path fill="none" d="M251.8199 127.8096 L326.8199 127.8096" clip-path="url(#clipPath2)"/>
      <path d="M334.8199 127.8096 L322.8199 122.8096 L325.8199 127.8096 L322.8199 132.8096 Z" clip-path="url(#clipPath2)" stroke="none"/>
      <text x="267.313" xml:space="preserve" y="106.4717" clip-path="url(#clipPath2)" stroke="none">Assembly</text>
      <text x="278.9761" xml:space="preserve" y="121.1729" clip-path="url(#clipPath2)" stroke="none">Code</text>
      <path fill="none" d="M426.8199 127.8096 L501.8199 127.8096" clip-path="url(#clipPath2)"/>
      <path d="M509.8199 127.8096 L497.8199 122.8096 L500.8199 127.8096 L497.8199 132.8096 Z" clip-path="url(#clipPath2)" stroke="none"/>
      <text x="450.9791" xml:space="preserve" y="106.4717" clip-path="url(#clipPath2)" stroke="none">Object</text>
      <text x="453.9761" xml:space="preserve" y="121.1729" clip-path="url(#clipPath2)" stroke="none">Code</text>
      <path fill="none" d="M601.8199 127.8096 L623.8199 127.8096" clip-path="url(#clipPath2)"/>
      <path d="M631.8199 127.8096 L619.8199 122.8096 L622.8199 127.8096 L619.8199 132.8096 Z" clip-path="url(#clipPath2)" stroke="none"/>
      <path fill="none" d="M468.3199 161.0022 L468.3199 127.8096 L501.8199 127.8096" clip-path="url(#clipPath2)"/>
      <path d="M509.8199 127.8096 L497.8199 122.8096 L500.8199 127.8096 L497.8199 132.8096 Z" clip-path="url(#clipPath2)" stroke="none"/>
      <path fill="none" d="M129.8199 127.8096 L151.8199 127.8096" clip-path="url(#clipPath2)"/>
      <path d="M159.8199 127.8096 L147.8199 122.8096 L150.8199 127.8096 L147.8199 132.8096 Z" clip-path="url(#clipPath2)" stroke="none"/>
      <path fill="none" d="M598.8635 200.0233 L568.6351 149.3096" clip-path="url(#clipPath2)" stroke="gray"/>
      <path fill="none" d="M340.2711 200.0233 L368.7474 149.3096" clip-path="url(#clipPath2)" stroke="gray"/>
      <path fill="none" d="M176.2347 200.0462 L197.0144 149.3096" clip-path="url(#clipPath2)" stroke="gray"/>
    </g>
  </g>
</svg>
