<?xml version="1.0" encoding="UTF-8"?><svg xmlns="http://www.w3.org/2000/svg" xmlns:xlink="http://www.w3.org/1999/xlink" fill-opacity="1" color-rendering="auto" color-interpolation="auto" text-rendering="auto" stroke="black" stroke-linecap="square" width="1075" stroke-miterlimit="10" shape-rendering="auto" stroke-opacity="1" fill="black" stroke-dasharray="none" font-weight="normal" stroke-width="1" height="202" font-family="'Dialog'" font-style="normal" stroke-linejoin="miter" font-size="12px" stroke-dashoffset="0" image-rendering="auto">
  <!--Generated by ySVG 2.5-->
  <defs id="genericDefs"/>
  <g>
    <defs id="defs1">
      <clipPath clipPathUnits="userSpaceOnUse" id="clipPath1">
        <path d="M0 0 L1075 0 L1075 202 L0 202 L0 0 Z"/>
      </clipPath>
      <clipPath clipPathUnits="userSpaceOnUse" id="clipPath2">
        <path d="M-235 252 L840 252 L840 454 L-235 454 L-235 252 Z"/>
      </clipPath>
    </defs>
    <g fill="rgb(255,204,0)" text-rendering="geometricPrecision" shape-rendering="geometricPrecision" transform="matrix(1,0,0,1,235,-252)" stroke="rgb(255,204,0)">
      <rect x="-132.0223" width="92" height="43" y="292.2385" clip-path="url(#clipPath2)" stroke="none"/>
    </g>
    <g text-rendering="geometricPrecision" stroke-miterlimit="1.45" shape-rendering="geometricPrecision" font-family="sans-serif" transform="matrix(1,0,0,1,235,-252)" stroke-linecap="butt">
      <text x="-101.0311" xml:space="preserve" y="318.4524" clip-path="url(#clipPath2)" stroke="none">Lexer</text>
      <rect fill="none" x="-132.0223" width="92" height="43" y="292.2385" clip-path="url(#clipPath2)"/>
      <text x="-209.5973" xml:space="preserve" y="311.1018" clip-path="url(#clipPath2)" stroke="none">Source</text>
      <text x="-204.9303" xml:space="preserve" y="325.8029" clip-path="url(#clipPath2)" stroke="none">Code</text>
      <text x="765.9609" xml:space="preserve" y="311.1018" clip-path="url(#clipPath2)" stroke="none">Assembly</text>
      <text x="777.624" xml:space="preserve" y="325.8029" clip-path="url(#clipPath2)" stroke="none">Code</text>
    </g>
    <g fill="rgb(255,204,0)" text-rendering="geometricPrecision" shape-rendering="geometricPrecision" transform="matrix(1,0,0,1,235,-252)" stroke="rgb(255,204,0)">
      <rect x="11.4889" width="92" height="43" y="292.2385" clip-path="url(#clipPath2)" stroke="none"/>
    </g>
    <g text-rendering="geometricPrecision" stroke-miterlimit="1.45" shape-rendering="geometricPrecision" font-family="sans-serif" transform="matrix(1,0,0,1,235,-252)" stroke-linecap="butt">
      <text x="39.817" xml:space="preserve" y="318.4524" clip-path="url(#clipPath2)" stroke="none">Parser</text>
      <rect fill="none" x="11.4889" width="92" height="43" y="292.2385" clip-path="url(#clipPath2)"/>
    </g>
    <g fill="rgb(255,204,0)" text-rendering="geometricPrecision" shape-rendering="geometricPrecision" transform="matrix(1,0,0,1,235,-252)" stroke="rgb(255,204,0)">
      <rect x="637.0445" width="92" height="43" y="292.2385" clip-path="url(#clipPath2)" stroke="none"/>
    </g>
    <g text-rendering="geometricPrecision" stroke-miterlimit="1.45" shape-rendering="geometricPrecision" font-family="sans-serif" transform="matrix(1,0,0,1,235,-252)" stroke-linecap="butt">
      <text x="642.694" xml:space="preserve" y="318.4524" clip-path="url(#clipPath2)" stroke="none">Code Emission</text>
      <rect fill="none" x="637.0445" width="92" height="43" y="292.2385" clip-path="url(#clipPath2)"/>
    </g>
    <g fill="rgb(255,204,0)" text-rendering="geometricPrecision" shape-rendering="geometricPrecision" transform="matrix(1,0,0,1,235,-252)" stroke="rgb(255,204,0)">
      <rect x="155" width="92" height="43" y="292.2385" clip-path="url(#clipPath2)" stroke="none"/>
    </g>
    <g text-rendering="geometricPrecision" stroke-miterlimit="1.45" shape-rendering="geometricPrecision" font-family="sans-serif" transform="matrix(1,0,0,1,235,-252)" stroke-linecap="butt">
      <text x="168.9785" xml:space="preserve" y="318.4524" clip-path="url(#clipPath2)" stroke="none">IR Codegen</text>
      <rect fill="none" x="155" width="92" height="43" y="292.2385" clip-path="url(#clipPath2)"/>
    </g>
    <g fill="rgb(255,204,0)" text-rendering="geometricPrecision" shape-rendering="geometricPrecision" transform="matrix(1,0,0,1,235,-252)" stroke="rgb(255,204,0)">
      <rect x="298.5111" width="92" height="43" y="292.2385" clip-path="url(#clipPath2)" stroke="none"/>
    </g>
    <g text-rendering="geometricPrecision" stroke-miterlimit="1.45" shape-rendering="geometricPrecision" font-family="sans-serif" transform="matrix(1,0,0,1,235,-252)" stroke-linecap="butt">
      <text x="318.8412" xml:space="preserve" y="318.4524" clip-path="url(#clipPath2)" stroke="none">Optimizer</text>
      <rect fill="none" x="298.5111" width="92" height="43" y="292.2385" clip-path="url(#clipPath2)"/>
    </g>
    <g fill="rgb(255,204,0)" text-rendering="geometricPrecision" shape-rendering="geometricPrecision" transform="matrix(1,0,0,1,235,-252)" stroke="rgb(255,204,0)">
      <rect x="442.0223" width="143.5111" height="68" y="267.2385" clip-path="url(#clipPath2)" stroke="none"/>
    </g>
    <g text-rendering="geometricPrecision" stroke-miterlimit="1.45" shape-rendering="geometricPrecision" font-family="sans-serif" transform="matrix(1,0,0,1,235,-252)" stroke-linecap="butt">
      <text x="456.4146" xml:space="preserve" y="283.9006" clip-path="url(#clipPath2)" stroke="none">Instruction Selection, </text>
      <text x="462.0864" xml:space="preserve" y="298.6018" clip-path="url(#clipPath2)" stroke="none">Register Allocation,</text>
      <text x="453.0747" xml:space="preserve" y="313.3029" clip-path="url(#clipPath2)" stroke="none">Instruction Scheduling,</text>
      <text x="504.1069" xml:space="preserve" y="328.0041" clip-path="url(#clipPath2)" stroke="none">etc.</text>
      <rect fill="none" x="442.0223" width="143.5111" height="68" y="267.2385" clip-path="url(#clipPath2)"/>
      <text x="-91.4763" xml:space="preserve" y="397.7802" clip-path="url(#clipPath2)" stroke="none">basic unit of syntax</text>
      <text x="-108.1462" xml:space="preserve" y="412.4814" clip-path="url(#clipPath2)" stroke="none">e.g. keywords, identifiers,</text>
      <text x="-89.1326" xml:space="preserve" y="427.1825" clip-path="url(#clipPath2)" stroke="none">literals, characters</text>
      <rect x="-116.9499" y="377.2675" clip-path="url(#clipPath2)" fill="none" width="153" rx="4" ry="4" height="61" stroke="gray"/>
      <path fill="none" d="M-162.0223 313.7385 L-140.0223 313.7385" clip-path="url(#clipPath2)"/>
      <path d="M-132.0223 313.7385 L-144.0223 308.7385 L-141.0223 313.7385 L-144.0223 318.7385 Z" clip-path="url(#clipPath2)" stroke="none"/>
      <path fill="none" d="M-40.0223 313.7385 L3.4889 313.7385" clip-path="url(#clipPath2)"/>
      <path d="M11.4889 313.7385 L-0.5111 308.7385 L2.4889 313.7385 L-0.5111 318.7385 Z" clip-path="url(#clipPath2)" stroke="none"/>
      <text x="-33.9425" xml:space="preserve" y="329.8029" clip-path="url(#clipPath2)" stroke="none">Tokens</text>
      <path fill="none" d="M729.0446 313.7385 L751.0446 313.7385" clip-path="url(#clipPath2)"/>
      <path d="M759.0446 313.7385 L747.0446 308.7385 L750.0446 313.7385 L747.0446 318.7385 Z" clip-path="url(#clipPath2)" stroke="none"/>
      <path fill="none" d="M103.4889 313.7385 L147 313.7385" clip-path="url(#clipPath2)"/>
      <path d="M155 313.7385 L143 308.7385 L146 313.7385 L143 318.7385 Z" clip-path="url(#clipPath2)" stroke="none"/>
      <text x="117.5755" xml:space="preserve" y="329.8029" clip-path="url(#clipPath2)" stroke="none">AST</text>
      <path fill="none" d="M247 313.7385 L290.5111 313.7385" clip-path="url(#clipPath2)"/>
      <path d="M298.5111 313.7385 L286.5111 308.7385 L289.5111 313.7385 L286.5111 318.7385 Z" clip-path="url(#clipPath2)" stroke="none"/>
      <text x="266.7556" xml:space="preserve" y="329.8029" clip-path="url(#clipPath2)" stroke="none">IR</text>
      <path fill="none" d="M390.5111 313.7385 L434.0119 313.7385" clip-path="url(#clipPath2)"/>
      <path d="M442.0119 313.7385 L430.0119 308.7385 L433.0119 313.7385 L430.0119 318.7385 Z" clip-path="url(#clipPath2)" stroke="none"/>
      <text x="410.2667" xml:space="preserve" y="329.8029" clip-path="url(#clipPath2)" stroke="none">IR</text>
      <path fill="none" d="M585.5645 313.7385 L629.0446 313.7385" clip-path="url(#clipPath2)"/>
      <path d="M637.0446 313.7385 L625.0446 308.7385 L628.0446 313.7385 L625.0446 318.7385 Z" clip-path="url(#clipPath2)" stroke="none"/>
      <text x="605.289" xml:space="preserve" y="329.8029" clip-path="url(#clipPath2)" stroke="none">IR</text>
      <path fill="none" d="M-30.0303 377.2791 L-15.6676 335.2527" clip-path="url(#clipPath2)" stroke="gray"/>
    </g>
  </g>
</svg>
