<?xml version="1.0" encoding="UTF-8"?><svg xmlns="http://www.w3.org/2000/svg" xmlns:xlink="http://www.w3.org/1999/xlink" fill-opacity="1" color-rendering="auto" color-interpolation="auto" text-rendering="auto" stroke="black" stroke-linecap="square" width="1075" stroke-miterlimit="10" shape-rendering="auto" stroke-opacity="1" fill="black" stroke-dasharray="none" font-weight="normal" stroke-width="1" height="310" font-family="'Dialog'" font-style="normal" stroke-linejoin="miter" font-size="12px" stroke-dashoffset="0" image-rendering="auto">
  <!--Generated by ySVG 2.5-->
  <defs id="genericDefs"/>
  <g>
    <defs id="defs1">
      <clipPath clipPathUnits="userSpaceOnUse" id="clipPath1">
        <path d="M0 0 L1075 0 L1075 310 L0 310 L0 0 Z"/>
      </clipPath>
      <clipPath clipPathUnits="userSpaceOnUse" id="clipPath2">
        <path d="M-235 252 L840 252 L840 562 L-235 562 L-235 252 Z"/>
      </clipPath>
    </defs>
    <g fill="rgb(255,204,0)" text-rendering="geometricPrecision" shape-rendering="geometricPrecision" transform="matrix(1,0,0,1,235,-252)" stroke="rgb(255,204,0)">
      <rect x="-132.0223" width="92" height="43" y="292.2385" clip-path="url(#clipPath2)" stroke="none"/>
    </g>
    <g text-rendering="geometricPrecision" stroke-miterlimit="1.45" shape-rendering="geometricPrecision" font-family="sans-serif" transform="matrix(1,0,0,1,235,-252)" stroke-linecap="butt">
      <text x="-101.0311" xml:space="preserve" y="318.4524" clip-path="url(#clipPath2)" stroke="none">Lexer</text>
      <rect fill="none" x="-132.0223" width="92" height="43" y="292.2385" clip-path="url(#clipPath2)"/>
      <text x="-209.5973" xml:space="preserve" y="311.1018" clip-path="url(#clipPath2)" stroke="none">Source</text>
      <text x="-204.9303" xml:space="preserve" y="325.8029" clip-path="url(#clipPath2)" stroke="none">Code</text>
      <text x="765.9609" xml:space="preserve" y="311.1018" clip-path="url(#clipPath2)" stroke="none">Assembly</text>
      <text x="777.624" xml:space="preserve" y="325.8029" clip-path="url(#clipPath2)" stroke="none">Code</text>
    </g>
    <g fill="rgb(255,204,0)" text-rendering="geometricPrecision" shape-rendering="geometricPrecision" transform="matrix(1,0,0,1,235,-252)" stroke="rgb(255,204,0)">
      <rect x="11.4889" width="92" height="43" y="292.2385" clip-path="url(#clipPath2)" stroke="none"/>
    </g>
    <g text-rendering="geometricPrecision" stroke-miterlimit="1.45" shape-rendering="geometricPrecision" font-family="sans-serif" transform="matrix(1,0,0,1,235,-252)" stroke-linecap="butt">
      <text x="39.817" xml:space="preserve" y="318.4524" clip-path="url(#clipPath2)" stroke="none">Parser</text>
      <rect fill="none" x="11.4889" width="92" height="43" y="292.2385" clip-path="url(#clipPath2)"/>
    </g>
    <g fill="rgb(255,204,0)" text-rendering="geometricPrecision" shape-rendering="geometricPrecision" transform="matrix(1,0,0,1,235,-252)" stroke="rgb(255,204,0)">
      <rect x="637.0445" width="92" height="43" y="292.2385" clip-path="url(#clipPath2)" stroke="none"/>
    </g>
    <g text-rendering="geometricPrecision" stroke-miterlimit="1.45" shape-rendering="geometricPrecision" font-family="sans-serif" transform="matrix(1,0,0,1,235,-252)" stroke-linecap="butt">
      <text x="642.694" xml:space="preserve" y="318.4524" clip-path="url(#clipPath2)" stroke="none">Code Emission</text>
      <rect fill="none" x="637.0445" width="92" height="43" y="292.2385" clip-path="url(#clipPath2)"/>
    </g>
    <g fill="rgb(255,204,0)" text-rendering="geometricPrecision" shape-rendering="geometricPrecision" transform="matrix(1,0,0,1,235,-252)" stroke="rgb(255,204,0)">
      <rect x="155" width="92" height="43" y="292.2385" clip-path="url(#clipPath2)" stroke="none"/>
    </g>
    <g text-rendering="geometricPrecision" stroke-miterlimit="1.45" shape-rendering="geometricPrecision" font-family="sans-serif" transform="matrix(1,0,0,1,235,-252)" stroke-linecap="butt">
      <text x="168.9785" xml:space="preserve" y="318.4524" clip-path="url(#clipPath2)" stroke="none">IR Codegen</text>
      <rect fill="none" x="155" width="92" height="43" y="292.2385" clip-path="url(#clipPath2)"/>
    </g>
    <g fill="rgb(255,204,0)" text-rendering="geometricPrecision" shape-rendering="geometricPrecision" transform="matrix(1,0,0,1,235,-252)" stroke="rgb(255,204,0)">
      <rect x="298.5111" width="92" height="43" y="292.2385" clip-path="url(#clipPath2)" stroke="none"/>
    </g>
    <g text-rendering="geometricPrecision" stroke-miterlimit="1.45" shape-rendering="geometricPrecision" font-family="sans-serif" transform="matrix(1,0,0,1,235,-252)" stroke-linecap="butt">
      <text x="318.8412" xml:space="preserve" y="318.4524" clip-path="url(#clipPath2)" stroke="none">Optimizer</text>
      <rect fill="none" x="298.5111" width="92" height="43" y="292.2385" clip-path="url(#clipPath2)"/>
    </g>
    <g fill="rgb(255,204,0)" text-rendering="geometricPrecision" shape-rendering="geometricPrecision" transform="matrix(1,0,0,1,235,-252)" stroke="rgb(255,204,0)">
      <rect x="442.0223" width="143.5111" height="68" y="267.2385" clip-path="url(#clipPath2)" stroke="none"/>
    </g>
    <g text-rendering="geometricPrecision" stroke-miterlimit="1.45" shape-rendering="geometricPrecision" font-family="sans-serif" transform="matrix(1,0,0,1,235,-252)" stroke-linecap="butt">
      <text x="456.4146" xml:space="preserve" y="283.9006" clip-path="url(#clipPath2)" stroke="none">Instruction Selection, </text>
      <text x="462.0864" xml:space="preserve" y="298.6018" clip-path="url(#clipPath2)" stroke="none">Register Allocation,</text>
      <text x="453.0747" xml:space="preserve" y="313.3029" clip-path="url(#clipPath2)" stroke="none">Instruction Scheduling,</text>
      <text x="504.1069" xml:space="preserve" y="328.0041" clip-path="url(#clipPath2)" stroke="none">etc.</text>
      <rect fill="none" x="442.0223" width="143.5111" height="68" y="267.2385" clip-path="url(#clipPath2)"/>
      <text x="-91.4763" xml:space="preserve" y="397.7802" clip-path="url(#clipPath2)" stroke="none">basic unit of syntax</text>
      <text x="-108.1462" xml:space="preserve" y="412.4814" clip-path="url(#clipPath2)" stroke="none">e.g. keywords, identifiers,</text>
      <text x="-89.1326" xml:space="preserve" y="427.1825" clip-path="url(#clipPath2)" stroke="none">literals, characters</text>
      <rect x="-116.9499" y="377.2675" clip-path="url(#clipPath2)" fill="none" width="153" rx="4" ry="4" height="61" stroke="gray"/>
      <text x="72.0501" xml:space="preserve" y="395.3319" clip-path="url(#clipPath2)" stroke="none">tree of symbols that fits the </text>
      <text x="72.0501" xml:space="preserve" y="410.0331" clip-path="url(#clipPath2)" stroke="none">language's grammatical structure</text>
      <rect x="66.0501" y="377.2675" clip-path="url(#clipPath2)" fill="none" width="193.6837" rx="4" ry="4" height="169.2" stroke="gray"/>
      <text x="178.2539" xml:space="preserve" y="446.7014" clip-path="url(#clipPath2)" stroke="none">+</text>
      <circle fill="none" r="15" clip-path="url(#clipPath2)" cx="181.7578" cy="441.9875"/>
      <text x="140.0717" xml:space="preserve" y="490.7014" clip-path="url(#clipPath2)" stroke="none">-</text>
      <circle fill="none" r="15" clip-path="url(#clipPath2)" cx="142.0698" cy="485.9875"/>
      <text x="80.7051" xml:space="preserve" y="532.1414" clip-path="url(#clipPath2)" stroke="none">&lt;var, x&gt;</text>
      <text x="156.4072" xml:space="preserve" y="532.1414" clip-path="url(#clipPath2)" stroke="none">&lt;num, 2&gt;</text>
      <text x="199.769" xml:space="preserve" y="490.7014" clip-path="url(#clipPath2)" stroke="none">&lt;var, y&gt;</text>
      <text x="303.1341" xml:space="preserve" y="393.9502" clip-path="url(#clipPath2)" stroke="none">basic blocks with SSA code</text>
      <rect x="297.1341" y="375.8858" clip-path="url(#clipPath2)" fill="none" width="338.3667" rx="4" ry="4" height="164.4" stroke="gray"/>
      <text x="347.4085" xml:space="preserve" y="458.4842" clip-path="url(#clipPath2)" stroke="none">v ← 5</text>
      <text x="347.4085" xml:space="preserve" y="473.1854" clip-path="url(#clipPath2)" stroke="none">x ← v - 3</text>
      <text x="347.4085" xml:space="preserve" y="487.8865" clip-path="url(#clipPath2)" stroke="none">x &lt; 3?</text>
      <path fill="none" d="M327.7578 468.4715 L336.4018 443.6355 L405.5538 443.6355 L414.1978 468.4715 L405.5538 493.3075 L336.4018 493.3075 Z" clip-path="url(#clipPath2)" fill-rule="evenodd"/>
      <text x="442.2716" xml:space="preserve" y="427.0808" clip-path="url(#clipPath2)" stroke="none">y ← x * 2</text>
      <text x="442.2716" xml:space="preserve" y="441.782" clip-path="url(#clipPath2)" stroke="none">w ← y</text>
      <path fill="none" d="M422.9578 429.7175 L431.6018 410.8815 L500.7538 410.8815 L509.3978 429.7175 L500.7538 448.5535 L431.6018 448.5535 Z" clip-path="url(#clipPath2)" fill-rule="evenodd"/>
      <text x="442.6085" xml:space="preserve" y="511.9394" clip-path="url(#clipPath2)" stroke="none">y ← x - 3</text>
      <path fill="none" d="M422.9578 507.2255 L431.6018 488.3895 L500.7538 488.3895 L509.3978 507.2255 L500.7538 526.0615 L431.6018 526.0615 Z" clip-path="url(#clipPath2)" fill-rule="evenodd"/>
      <text x="535.0396" xml:space="preserve" y="465.8348" clip-path="url(#clipPath2)" stroke="none">w ← x - y</text>
      <text x="535.0396" xml:space="preserve" y="480.5359" clip-path="url(#clipPath2)" stroke="none">z ← x + y</text>
      <path fill="none" d="M516.5579 468.4715 L525.2018 449.6355 L594.3538 449.6355 L602.9979 468.4715 L594.3538 487.3075 L525.2018 487.3075 Z" clip-path="url(#clipPath2)" fill-rule="evenodd"/>
      <path fill="none" d="M-162.0223 313.7385 L-140.0223 313.7385" clip-path="url(#clipPath2)"/>
      <path d="M-132.0223 313.7385 L-144.0223 308.7385 L-141.0223 313.7385 L-144.0223 318.7385 Z" clip-path="url(#clipPath2)" stroke="none"/>
      <path fill="none" d="M-40.0223 313.7385 L3.4889 313.7385" clip-path="url(#clipPath2)"/>
      <path d="M11.4889 313.7385 L-0.5111 308.7385 L2.4889 313.7385 L-0.5111 318.7385 Z" clip-path="url(#clipPath2)" stroke="none"/>
      <text x="-33.9425" xml:space="preserve" y="329.8029" clip-path="url(#clipPath2)" stroke="none">Tokens</text>
      <path fill="none" d="M729.0446 313.7385 L751.0446 313.7385" clip-path="url(#clipPath2)"/>
      <path d="M759.0446 313.7385 L747.0446 308.7385 L750.0446 313.7385 L747.0446 318.7385 Z" clip-path="url(#clipPath2)" stroke="none"/>
      <path fill="none" d="M103.4889 313.7385 L147 313.7385" clip-path="url(#clipPath2)"/>
      <path d="M155 313.7385 L143 308.7385 L146 313.7385 L143 318.7385 Z" clip-path="url(#clipPath2)" stroke="none"/>
      <text x="117.5755" xml:space="preserve" y="329.8029" clip-path="url(#clipPath2)" stroke="none">AST</text>
      <path fill="none" d="M247 313.7385 L290.5111 313.7385" clip-path="url(#clipPath2)"/>
      <path d="M298.5111 313.7385 L286.5111 308.7385 L289.5111 313.7385 L286.5111 318.7385 Z" clip-path="url(#clipPath2)" stroke="none"/>
      <text x="266.7556" xml:space="preserve" y="329.8029" clip-path="url(#clipPath2)" stroke="none">IR</text>
      <path fill="none" d="M390.5111 313.7385 L434.0119 313.7385" clip-path="url(#clipPath2)"/>
      <path d="M442.0119 313.7385 L430.0119 308.7385 L433.0119 313.7385 L430.0119 318.7385 Z" clip-path="url(#clipPath2)" stroke="none"/>
      <text x="410.2667" xml:space="preserve" y="329.8029" clip-path="url(#clipPath2)" stroke="none">IR</text>
      <path fill="none" d="M585.5645 313.7385 L629.0446 313.7385" clip-path="url(#clipPath2)"/>
      <path d="M637.0446 313.7385 L625.0446 308.7385 L628.0446 313.7385 L625.0446 318.7385 Z" clip-path="url(#clipPath2)" stroke="none"/>
      <text x="605.289" xml:space="preserve" y="329.8029" clip-path="url(#clipPath2)" stroke="none">IR</text>
      <path fill="none" d="M-30.0303 377.2791 L-15.6676 335.2527" clip-path="url(#clipPath2)" stroke="gray"/>
      <path fill="none" d="M141.1147 377.2673 L130.2993 335.2517" clip-path="url(#clipPath2)" stroke="gray"/>
      <path fill="none" d="M171.711 453.1258 L152.1166 474.8492" clip-path="url(#clipPath2)"/>
      <path fill="none" d="M109.1257 520.3859 L131.6947 496.8206" clip-path="url(#clipPath2)"/>
      <path fill="none" d="M175.0139 520.3859 L152.4449 496.8206" clip-path="url(#clipPath2)"/>
      <path fill="none" d="M215.0673 478.916 L191.8045 453.1258" clip-path="url(#clipPath2)"/>
      <path fill="none" d="M340.97 375.8867 L278.9841 335.2382" clip-path="url(#clipPath2)" stroke="gray"/>
      <path fill="none" d="M433.8993 375.8712 L417.8681 335.2149" clip-path="url(#clipPath2)" stroke="gray"/>
      <path fill="none" d="M560.2162 375.8712 L606.6256 335.2368" clip-path="url(#clipPath2)" stroke="gray"/>
      <path fill="none" d="M408.8394 453.0588 L422.3438 447.5615" clip-path="url(#clipPath2)"/>
      <path d="M429.7533 444.5452 L416.7538 444.4386 L421.4175 447.9385 L420.5241 453.7006 Z" clip-path="url(#clipPath2)" stroke="none"/>
      <path fill="none" d="M408.8394 483.8842 L422.3438 489.3815" clip-path="url(#clipPath2)"/>
      <path d="M429.7533 492.3978 L420.5241 483.2424 L421.4175 489.0045 L416.7538 492.5044 Z" clip-path="url(#clipPath2)" stroke="none"/>
      <path fill="none" d="M502.5118 444.7612 L516.0638 450.3722" clip-path="url(#clipPath2)"/>
      <path d="M523.4553 453.4326 L514.2807 444.2224 L515.1398 449.9897 L510.4553 453.4617 Z" clip-path="url(#clipPath2)" stroke="none"/>
      <path fill="none" d="M502.5118 492.1818 L516.0638 486.5708" clip-path="url(#clipPath2)"/>
      <path d="M523.4553 483.5105 L510.4553 483.4813 L515.1398 486.9534 L514.2807 492.7207 Z" clip-path="url(#clipPath2)" stroke="none"/>
      <path fill="none" d="M307.3807 468.4715 L319.7827 468.4715" clip-path="url(#clipPath2)"/>
      <path d="M327.7827 468.4715 L315.7827 463.4715 L318.7827 468.4715 L315.7827 473.4715 Z" clip-path="url(#clipPath2)" stroke="none"/>
      <path fill="none" d="M602.9788 468.4715 L617.2762 468.4715" clip-path="url(#clipPath2)"/>
      <path d="M625.2762 468.4715 L613.2762 463.4715 L616.2762 468.4715 L613.2762 473.4715 Z" clip-path="url(#clipPath2)" stroke="none"/>
    </g>
  </g>
</svg>
